<svg viewBox="0 0 2756 857" version="1.2" xmlns="http://www.w3.org/2000/svg"><path fillRule="evenodd" fill="#334155" d="m388.2 334.1l135.9 135.9-135.9 135.9-135.9-135.9zm179 27.9h-108.6v-108.6h108.6zm-16.2-212.1v76.3h-76.3v-76.3zm42.5-45.8h-44.6v-44.6h44.6zm79.8-52.9h30.6v30.6h-30.6zm-23.7-48.3v22.2h-22.2v-22.2zm39 161.2h48v48h-48zm-12.7 179.9h-90.6v-90.7h90.6zm-78.4-206.6h66.2v66.1h-66.2z"/><path fill="#808080" d="m670.5 366.2h-85.2v31.1l72.7 72.7-269.8 269.7-269.7-269.7 269.7-269.8 38.6 38.6v-0.5h25.4v-90.4l-64-64-386 386.1 386 386 386.1-386z"/><path fill="#334155" d="m1222.4 567h64.6l-118.9-266h-60.8l-118.6 266h63.1l23.6-57h123.5zm-127.3-103.7l42.1-101.9 42.2 101.9zm936.6-162.3l-82.1 190-81-190h-66.5l114.8 266h60.8l115.1-266zm272.9 0v104.9h-120.9v-104.9h-61.5v266h61.5v-109.1h120.9v109.1h61.5v-266zm187.3 216.6v-61.6h123.5v-47.8h-123.5v-57.8h139.9v-49.4h-201.1v266h206v-49.4z"/><path fill="#808080" d="m1472.8 285v111c-16.7-21.7-41.8-32.3-70.3-32.3-58.9 0-101.8 41-101.8 102.6 0 61.6 42.9 103 101.8 103 29.6 0 55.5-11.4 71.8-34.2v31.9h35v-282zm-67.3 252.4c-38.7 0-68-28.2-68-71.1 0-42.9 29.3-70.7 68-70.7 38.4 0 67.7 27.8 67.7 70.7 0 42.9-29.3 71.1-67.7 71.1zm327.7-252.4v111c-16.7-21.7-41.8-32.3-70.3-32.3-58.9 0-101.8 41-101.8 102.6 0 61.6 42.9 103 101.8 103 29.7 0 55.5-11.4 71.8-34.2v31.9h35v-282zm-67.3 252.4c-38.7 0-68-28.2-68-71.1 0-42.9 29.3-70.7 68-70.7 38.4 0 67.7 27.8 67.7 70.7 0 42.9-29.3 71.1-67.7 71.1z"/></svg>